<svg width="40" height="40" viewBox="0 0 512 512" fill="none" xmlns="http://www.w3.org/2000/svg">
    <path d="M238.285 89.2354C242.2 79.5162 251.681 73.1431 262.223 73.1431H427.678C445.918 73.1431 458.39 91.4349 451.616 108.251L324.914 422.765C320.999 432.484 311.518 438.857 300.976 438.857H135.522C117.282 438.857 104.809 420.565 111.583 403.75L238.285 89.2354Z" fill="url(#paint0_linear_2845_4597)"/>
    <path d="M168.229 292.572C228.822 292.572 277.943 243.451 277.943 182.857C277.943 122.264 228.822 73.1431 168.229 73.1431C107.635 73.1431 58.5146 122.264 58.5146 182.857C58.5146 243.451 107.635 292.572 168.229 292.572Z" fill="#0A33FF"/>
    <path d="M277.945 182.858C277.945 243.451 228.824 292.572 168.23 292.572C164.308 292.572 160.434 292.366 156.618 291.965L235.492 96.1733C261.324 116.246 277.945 147.611 277.945 182.858Z" fill="url(#paint1_linear_2845_4597)"/>
    <defs>
        <linearGradient id="paint0_linear_2845_4597" x1="349.754" y1="73.1431" x2="211.545" y2="439.333" gradientUnits="userSpaceOnUse">
            <stop stop-color="#FFD60A"/>
            <stop offset="1" stop-color="#F5BE09"/>
        </linearGradient>
        <linearGradient id="paint1_linear_2845_4597" x1="234.693" y1="96.3084" x2="156.334" y2="291.614" gradientUnits="userSpaceOnUse">
            <stop stop-color="#051A80"/>
            <stop offset="1" stop-color="#0A33FF"/>
        </linearGradient>
    </defs>
</svg>
